<svg width="40px" height="40px" xmlns="http://www.w3.org/2000/svg" data-name="Layer 1" viewBox="0 0 122.88 107.54"><path d="M88.42 68.75a48.8 48.8 0 0 1-4.74 11.1h9.89a7.67 7.67 0 0 0 1.35.65 7 7 0 0 0 6.68-1l2.72-1.85a53.3 53.3 0 0 1-4.25 7.66 50.16 50.16 0 0 1-13.6 13.59 52 52 0 0 1-8.6 4.67 49.29 49.29 0 0 1-9.57 3 52.37 52.37 0 0 1-20.27 0 49 49 0 0 1-9.41-2.91l-.16-.06a52.41 52.41 0 0 1-8.6-4.67 49.81 49.81 0 0 1-7.46-6.14c-1-1-1.94-2-2.85-3.1a48.57 48.57 0 0 1 4.54-3.46q1.13 1.31 2.34 2.52a43.34 43.34 0 0 0 6.59 5.43 47.51 47.51 0 0 0 7.69 4.16l.13.06a42.89 42.89 0 0 0 8.3 2.55c.71.14 1.44.27 2.17.37a90.25 90.25 0 0 1-16-17.24h-8c3-1.9 6.34-3.75 9.65-5.49.25.43.51.85.78 1.27H56V69.62l1.4-.59a6.73 6.73 0 0 0 3 2.93v7.89h18.17c4.34-6.81 6.68-13.67 7-20.57l2.88 9.47Zm-37.07-16.3c.68-2.17 2.57-3.91 5.31-5.67L47.3 35.84c-.63-.55-.47-1 .12-1.39l3.11-1.33a1.82 1.82 0 0 1 1.51.19l13.59 6.85 16-9.25-22.12-27.5c-.57-.63-.49-1.12.4-1.44l5-2 33.24 21.49 12-5.83c4.57-2 8.51-2.32 11-.83a2.9 2.9 0 0 1 1.78 3c.05 3-2.46 6.24-6.89 9l-12.47 4.86-1 39.53-4.46 3c-.77.55-1.22.35-1.42-.48L86.37 40l-16.64 8-2 15a1.85 1.85 0 0 1-.73 1.38l-2.83 1.82c-.65.26-1.11.14-1.2-.69l-3.76-13.9c-3 1.28-5.52 1.86-7.7 1.18-.2-.06-.22-.15-.16-.34Zm-4.2-6.93c-13.22 7-30.9 18.37-37.4 25-21.26 21.89-4.67 38.95 20.17 31.48-7.78-1.15-13.87-2.72-17.25-4.94-14.43-9.48 32-29.94 42.86-34.42l-.85-3.15a13.18 13.18 0 0 1-5.07-.53l-.61-.27a6.05 6.05 0 0 1-3.55-3.51l-.13-.35a6.08 6.08 0 0 1-.07-4.26 13.1 13.1 0 0 1 2.41-4.47l-.49-.58ZM8 63.11A53.31 53.31 0 0 1 7.66 57a51.43 51.43 0 0 1 1-10.14 48.27 48.27 0 0 1 2.9-9.41l.06-.15a53.32 53.32 0 0 1 4.68-8.61 49.17 49.17 0 0 1 6.13-7.45 49.81 49.81 0 0 1 7.46-6.14 52.41 52.41 0 0 1 8.6-4.67 49.51 49.51 0 0 1 9.57-3 51.5 51.5 0 0 1 5.87-.82 9.24 9.24 0 0 0 .74 1l5.72 7.13v15.12h10.22l-5.19 3L56 28.12V14.71a104.13 104.13 0 0 0-14.44 15.15h1.33a6.85 6.85 0 0 0-2.17 3.5 5.42 5.42 0 0 0-.17.8v.09h-2.07A51.72 51.72 0 0 0 32.74 46c-1.81 1.09-3.63 2.2-5.43 3.34a50.67 50.67 0 0 1 6-15.13H19.54a48.92 48.92 0 0 0-2.67 5.32l-.06.13A42.11 42.11 0 0 0 14.26 48a44.76 44.76 0 0 0-.82 6.82H19a130.39 130.39 0 0 0-11 8.3Zm77.51-3.9H74.7l.59-4.4h8.9l1.33 4.4ZM81 84.07a90.83 90.83 0 0 1-16 17.25c.73-.11 1.45-.24 2.17-.38a43.49 43.49 0 0 0 8.42-2.61 47.09 47.09 0 0 0 7.69-4.16 43.34 43.34 0 0 0 6.59-5.43A42.75 42.75 0 0 0 94 84.07ZM60.38 99.5a93.83 93.83 0 0 0 15.24-15.43H60.38V99.5ZM56 84.07H40.75A94.23 94.23 0 0 0 56 99.5V84.07ZM36.16 29.86a100.58 100.58 0 0 1 15.56-17.21c-.86.12-1.71.26-2.55.43a42 42 0 0 0-8.43 2.61 47.51 47.51 0 0 0-7.69 4.16 43.34 43.34 0 0 0-6.59 5.43 43.24 43.24 0 0 0-4 4.57Z"/></svg>